<?xml version="1.0" encoding="UTF-8" standalone="no"?>
<svg
   data-name="86977684-12db-4850-8f30-233a7c267d11"
   viewBox="0 0 512 512"
   version="1.1"
   id="svg1017"
   sodipodi:docname="usdc.svg"
   width="512"
   height="512"
   inkscape:version="1.1.2 (0a00cf5339, 2022-02-04)"
   xmlns:inkscape="http://www.inkscape.org/namespaces/inkscape"
   xmlns:sodipodi="http://sodipodi.sourceforge.net/DTD/sodipodi-0.dtd"
   xmlns="http://www.w3.org/2000/svg"
   xmlns:svg="http://www.w3.org/2000/svg">
  <defs
     id="defs1021" />
  <sodipodi:namedview
     id="namedview1019"
     pagecolor="#ffffff"
     bordercolor="#666666"
     borderopacity="1.0"
     inkscape:pageshadow="2"
     inkscape:pageopacity="0.0"
     inkscape:pagecheckerboard="0"
     showgrid="false"
     fit-margin-top="0"
     fit-margin-left="0"
     fit-margin-right="0"
     fit-margin-bottom="0"
     inkscape:zoom="0.3915"
     inkscape:cx="256.70498"
     inkscape:cy="256.70498"
     inkscape:window-width="1910"
     inkscape:window-height="958"
     inkscape:window-x="0"
     inkscape:window-y="45"
     inkscape:window-maximized="1"
     inkscape:current-layer="svg1017" />
  <path
     d="M 256,512 C 397.8675,512 512,397.8675 512,256 512,114.13248 397.8675,0 256,0 114.13248,0 0,114.13248 0,256 0,397.8675 114.13248,512 256,512 Z"
     fill="#2775ca"
     id="path1011"
     style="stroke-width:0.256" />
  <path
     d="M 326.4,296.5325 C 326.4,259.2 304,246.4 259.2,241.06752 c -32,-4.26752 -38.4,-12.8 -38.4,-27.73504 0,-14.93504 10.66752,-24.53248 32,-24.53248 19.2,0 29.8675,6.4 35.2,22.4 1.0675,3.2 4.2675,5.33248 7.4675,5.33248 h 17.065 c 4.2675,0 7.4675,-3.2 7.4675,-7.46496 V 208 c -4.2675,-23.46752 -23.4675,-41.6 -48,-43.73248 v -25.6 C 272,134.4 268.8,131.2 263.4675,130.13248 h -15.99998 c -4.26752,0 -7.46752,3.2 -8.53504,8.53504 V 163.2 c -32,4.26752 -52.26496,25.6 -52.26496,52.26752 0,35.2 21.33248,49.06498 66.13248,54.39998 29.8675,5.3325 39.4675,11.7325 39.4675,28.8 0,17.0675 -14.935,28.8 -35.2,28.8 -27.73502,0 -37.33502,-11.735 -40.53502,-27.735 -1.06496,-4.265 -4.26496,-6.4 -7.46496,-6.4 h -18.13504 c -4.26496,0 -7.46496,3.2 -7.46496,7.4675 v 1.0675 c 4.26496,26.665 21.33248,45.865 56.53248,51.2 v 25.6 c 0,4.265 3.2,7.465 8.53248,8.5325 h 16.00002 c 4.2675,0 7.4675,-3.2 8.535,-8.5325 v -25.6 c 32,-5.335 53.3325,-27.735 53.3325,-56.535 z"
     fill="#ffffff"
     id="path1013"
     style="stroke-width:0.256" />
  <path
     d="m 201.6,408.5325 c -83.2,-29.865 -125.86752,-122.665 -94.93248,-204.80002 16,-44.8 51.2,-78.93248 94.93248,-94.93248 4.26752,-2.13248 6.4,-5.33248 6.4,-10.66752 V 83.2 c 0,-4.26752 -2.13248,-7.46752 -6.4,-8.53248 -1.06752,0 -3.2,0 -4.26752,1.06496 -101.33248,32 -156.8,139.73504 -124.8,241.06752 19.2,59.7325 65.06752,105.6 124.8,124.8 4.26752,2.1325 8.53504,0 9.6,-4.2675 C 208,436.2675 208,435.2 208,433.0675 v -14.935 c 0,-3.2 -3.2,-7.465 -6.4,-9.6 z M 314.6675,75.73248 C 310.4,73.6 306.1325,75.73248 305.0675,80 304,81.06752 304,82.13248 304,84.26752 V 99.2 c 0,4.26752 3.2,8.53248 6.4,10.66752 83.2,29.86496 125.8675,122.66496 94.9325,204.79998 -16,44.8 -51.2,78.9325 -94.9325,94.9325 -4.2675,2.1325 -6.4,5.3325 -6.4,10.6675 V 435.2 c 0,4.2675 2.1325,7.4675 6.4,8.5325 1.0675,0 3.2,0 4.2675,-1.065 101.3325,-32 156.8,-139.735 124.8,-241.0675 -19.2,-60.8 -66.135,-106.66752 -124.8,-125.86752 z"
     fill="#ffffff"
     id="path1015"
     style="stroke-width:0.256" />
</svg>
